C:\OpenCap\opencap-processing\Data\f695a51c-2aed-4feb-b28d-2290ed51e9ec\OpenSimData\Dynamics\Javelin75\GRF_resultant_Javelin75_0.mot
version=1
nRows=12
nColumns=19
inDegrees=yes
endheader 
time	ground_force_right_vx	ground_force_right_vy	ground_force_right_vz	ground_force_right_px	ground_force_right_py	ground_force_right_pz	ground_torque_right_x	ground_torque_right_y	ground_torque_right_z	ground_force_left_vx	ground_force_left_vy	ground_force_left_vz	ground_force_left_px	ground_force_left_py	ground_force_left_pz	ground_torque_left_x	ground_torque_left_y	ground_torque_left_z	
          7.35000000	         -4.61426219	          9.07800983	         15.12201100	         -3.21814581	          0.00000000	          0.27645876	          0.00000000	          0.00000000	          0.00000000	       -563.98630189	       1586.11863599	        228.63356004	         -2.30536427	          0.00000000	         -0.21742383	          0.00000000	         -4.11612396	          0.00000000	
          7.36000000	          0.04475047	         -0.04924410	         -0.06890832	          0.00000000	          0.00000000	          0.00000000	          0.00000000	         -0.20934986	          0.00000000	       -489.76431231	       1703.21210838	        248.27091850	         -2.30935496	          0.00000000	         -0.21836120	          0.00000000	         -2.93698469	          0.00000000	
          7.37000000	          0.01705470	         -0.01183926	         -0.01572042	          0.00000000	          0.00000000	          0.00000000	          0.00000000	         -0.04594116	          0.00000000	       -784.60213581	       1592.91085000	        135.02083513	         -2.30576763	          0.00000000	         -0.21992176	          0.00000000	         -2.69681511	          0.00000000	
          7.38000000	         -0.63899440	          0.33662795	          0.48911779	         -3.16408526	          0.00000000	          0.22967281	          0.00000000	          0.00000000	          0.00000000	          8.48377600	          7.19932332	          1.56748671	         -2.32857345	          0.00000000	         -0.25005152	          0.00000000	         -0.14411234	          0.00000000	
          7.39000000	         -1.81748566	          0.73192754	          1.19183688	         -3.13144183	          0.00000000	          0.21039923	          0.00000000	          0.00000000	          0.00000000	        103.48699518	         97.91784134	          7.45888311	         -2.23941898	          0.00000000	         -0.22369781	          0.00000000	          0.00842456	          0.00000000	
          7.40000000	         -2.76727013	          0.92859174	          1.67732006	         -3.09208852	          0.00000000	          0.18809383	          0.00000000	          0.00000000	          0.00000000	       -352.86858005	        826.58569720	         92.53808691	         -2.30290481	          0.00000000	         -0.22371304	          0.00000000	         -0.77996527	          0.00000000	
          7.41000000	         -0.26445055	          0.07899927	          0.13954453	         -3.04302112	          0.00000000	          0.16312637	          0.00000000	          0.00000012	          0.00000000	       -256.27270407	        731.67926360	         93.72775374	         -2.30275453	          0.00000000	         -0.22588268	          0.00000000	         -0.89838712	          0.00000000	
          7.42000000	         -0.00010076	          0.00003040	          0.00004224	         -2.96514254	          0.00000000	          0.21986151	          0.00000000	         -0.00000000	          0.00000000	       -264.56036347	        762.23282106	         99.70316895	         -2.30421257	          0.00000000	         -0.23123507	          0.00000000	          0.35028288	          0.00000000	
          7.43000000	         -0.00001326	          0.00000391	          0.00000411	         -2.91541550	          0.00000000	          0.20873217	          0.00000000	          0.00000000	          0.00000000	       -220.28106230	        734.19806345	        127.71954945	         -2.30811961	          0.00000000	         -0.24186823	          0.00000000	          0.27941945	          0.00000000	
          7.44000000	          0.00000000	         -0.00000000	         -0.00000000	          0.00000000	          0.00000000	          0.00000000	          0.00000000	         -0.00000000	          0.00000000	       -126.16568219	        609.63002778	        162.85437534	         -2.30783079	          0.00000000	         -0.25460544	          0.00000000	          1.43204995	          0.00000000	
          7.45000000	          0.00000000	         -0.00000000	         -0.00000000	          0.00000000	          0.00000000	          0.00000000	          0.00000000	          0.00000000	          0.00000000	       -442.29687557	        699.54392109	         11.99119638	         -2.30249591	          0.00000000	         -0.26250661	          0.00000000	         -0.44584404	          0.00000000	
          7.46000000	          0.00000000	         -0.00000000	         -0.00000000	          0.00000000	          0.00000000	          0.00000000	          0.00000000	          0.00000000	          0.00000000	          8.21483488	         18.63755766	         27.82276025	         -2.24659259	          0.00000000	         -0.25205342	          0.00000000	         -0.21372042	          0.00000000	
